<mxfile host="app.diagrams.net" modified="2021-10-29T14:32:36.227Z" agent="5.0 (X11; Linux x86_64) AppleWebKit/537.36 (KHTML, like Gecko) Chrome/95.0.4638.54 Safari/537.36" etag="QwubOSMfoJLwykMubCgg" version="15.6.2" type="github">
  <diagram id="E2U1LcFhyhpVBtZrb1-E" name="Page-1">
    <mxGraphModel dx="1502" dy="593" grid="1" gridSize="10" guides="1" tooltips="1" connect="1" arrows="1" fold="1" page="0" pageScale="1" pageWidth="850" pageHeight="1100" math="0" shadow="0">
      <root>
        <mxCell id="0" />
        <mxCell id="1" parent="0" />
        <mxCell id="0DwwCOCY6F2ctR4Fyw3S-44" value="" style="whiteSpace=wrap;html=1;" vertex="1" parent="1">
          <mxGeometry x="20" y="310" width="620" height="270" as="geometry" />
        </mxCell>
        <mxCell id="0DwwCOCY6F2ctR4Fyw3S-43" value="" style="whiteSpace=wrap;html=1;" vertex="1" parent="1">
          <mxGeometry x="20" y="10" width="620" height="270" as="geometry" />
        </mxCell>
        <mxCell id="0DwwCOCY6F2ctR4Fyw3S-6" value="" style="edgeStyle=orthogonalEdgeStyle;rounded=0;orthogonalLoop=1;jettySize=auto;html=1;" edge="1" parent="1" source="0DwwCOCY6F2ctR4Fyw3S-2" target="0DwwCOCY6F2ctR4Fyw3S-3">
          <mxGeometry relative="1" as="geometry" />
        </mxCell>
        <mxCell id="0DwwCOCY6F2ctR4Fyw3S-21" value="" style="edgeStyle=orthogonalEdgeStyle;rounded=0;orthogonalLoop=1;jettySize=auto;html=1;" edge="1" parent="1" source="0DwwCOCY6F2ctR4Fyw3S-2" target="0DwwCOCY6F2ctR4Fyw3S-17">
          <mxGeometry relative="1" as="geometry" />
        </mxCell>
        <mxCell id="0DwwCOCY6F2ctR4Fyw3S-2" value="Code" style="rounded=1;whiteSpace=wrap;html=1;fillColor=#d5e8d4;strokeColor=#82b366;" vertex="1" parent="1">
          <mxGeometry x="200" y="180" width="80" height="60" as="geometry" />
        </mxCell>
        <mxCell id="0DwwCOCY6F2ctR4Fyw3S-7" value="" style="edgeStyle=orthogonalEdgeStyle;rounded=0;orthogonalLoop=1;jettySize=auto;html=1;" edge="1" parent="1" source="0DwwCOCY6F2ctR4Fyw3S-3" target="0DwwCOCY6F2ctR4Fyw3S-4">
          <mxGeometry relative="1" as="geometry" />
        </mxCell>
        <mxCell id="0DwwCOCY6F2ctR4Fyw3S-32" style="edgeStyle=orthogonalEdgeStyle;rounded=0;orthogonalLoop=1;jettySize=auto;html=1;entryX=0.5;entryY=1;entryDx=0;entryDy=0;" edge="1" parent="1" source="0DwwCOCY6F2ctR4Fyw3S-3" target="0DwwCOCY6F2ctR4Fyw3S-31">
          <mxGeometry relative="1" as="geometry" />
        </mxCell>
        <mxCell id="0DwwCOCY6F2ctR4Fyw3S-3" value="Build" style="rounded=1;whiteSpace=wrap;html=1;fillColor=#ffe6cc;strokeColor=#d79b00;" vertex="1" parent="1">
          <mxGeometry x="320" y="180" width="80" height="60" as="geometry" />
        </mxCell>
        <mxCell id="0DwwCOCY6F2ctR4Fyw3S-12" style="edgeStyle=orthogonalEdgeStyle;rounded=0;orthogonalLoop=1;jettySize=auto;html=1;entryX=0.5;entryY=0;entryDx=0;entryDy=0;" edge="1" parent="1" source="0DwwCOCY6F2ctR4Fyw3S-4" target="0DwwCOCY6F2ctR4Fyw3S-8">
          <mxGeometry relative="1" as="geometry" />
        </mxCell>
        <mxCell id="0DwwCOCY6F2ctR4Fyw3S-35" style="edgeStyle=orthogonalEdgeStyle;rounded=0;orthogonalLoop=1;jettySize=auto;html=1;exitX=0.5;exitY=0;exitDx=0;exitDy=0;entryX=0.5;entryY=1;entryDx=0;entryDy=0;" edge="1" parent="1" source="0DwwCOCY6F2ctR4Fyw3S-4" target="0DwwCOCY6F2ctR4Fyw3S-23">
          <mxGeometry relative="1" as="geometry" />
        </mxCell>
        <mxCell id="0DwwCOCY6F2ctR4Fyw3S-4" value="Test" style="rounded=1;whiteSpace=wrap;html=1;fillColor=#fff2cc;strokeColor=#d6b656;arcSize=15;" vertex="1" parent="1">
          <mxGeometry x="440" y="180" width="80" height="60" as="geometry" />
        </mxCell>
        <mxCell id="0DwwCOCY6F2ctR4Fyw3S-5" value="" style="edgeStyle=orthogonalEdgeStyle;rounded=0;orthogonalLoop=1;jettySize=auto;html=1;" edge="1" parent="1" source="0DwwCOCY6F2ctR4Fyw3S-1" target="0DwwCOCY6F2ctR4Fyw3S-2">
          <mxGeometry relative="1" as="geometry" />
        </mxCell>
        <object label="Plan" id="0DwwCOCY6F2ctR4Fyw3S-1">
          <mxCell style="rounded=1;whiteSpace=wrap;html=1;fillColor=#dae8fc;strokeColor=#6c8ebf;" vertex="1" parent="1">
            <mxGeometry x="80" y="180" width="80" height="60" as="geometry" />
          </mxCell>
        </object>
        <mxCell id="0DwwCOCY6F2ctR4Fyw3S-13" value="" style="edgeStyle=orthogonalEdgeStyle;rounded=0;orthogonalLoop=1;jettySize=auto;html=1;" edge="1" parent="1" source="0DwwCOCY6F2ctR4Fyw3S-8" target="0DwwCOCY6F2ctR4Fyw3S-9">
          <mxGeometry relative="1" as="geometry" />
        </mxCell>
        <mxCell id="0DwwCOCY6F2ctR4Fyw3S-30" style="edgeStyle=orthogonalEdgeStyle;rounded=0;orthogonalLoop=1;jettySize=auto;html=1;entryX=0.5;entryY=0;entryDx=0;entryDy=0;" edge="1" parent="1" source="0DwwCOCY6F2ctR4Fyw3S-8" target="0DwwCOCY6F2ctR4Fyw3S-29">
          <mxGeometry relative="1" as="geometry" />
        </mxCell>
        <mxCell id="0DwwCOCY6F2ctR4Fyw3S-8" value="Release" style="rounded=1;whiteSpace=wrap;html=1;fillColor=#e1d5e7;strokeColor=#9673a6;" vertex="1" parent="1">
          <mxGeometry x="440" y="360" width="80" height="60" as="geometry" />
        </mxCell>
        <mxCell id="0DwwCOCY6F2ctR4Fyw3S-14" value="" style="edgeStyle=orthogonalEdgeStyle;rounded=0;orthogonalLoop=1;jettySize=auto;html=1;" edge="1" parent="1" source="0DwwCOCY6F2ctR4Fyw3S-9" target="0DwwCOCY6F2ctR4Fyw3S-10">
          <mxGeometry relative="1" as="geometry" />
        </mxCell>
        <mxCell id="0DwwCOCY6F2ctR4Fyw3S-37" style="edgeStyle=orthogonalEdgeStyle;rounded=0;orthogonalLoop=1;jettySize=auto;html=1;entryX=0.5;entryY=0;entryDx=0;entryDy=0;" edge="1" parent="1" source="0DwwCOCY6F2ctR4Fyw3S-9" target="0DwwCOCY6F2ctR4Fyw3S-36">
          <mxGeometry relative="1" as="geometry" />
        </mxCell>
        <mxCell id="0DwwCOCY6F2ctR4Fyw3S-9" value="Deploy" style="rounded=1;whiteSpace=wrap;html=1;fillColor=#60a917;fontColor=#ffffff;strokeColor=#2D7600;" vertex="1" parent="1">
          <mxGeometry x="320" y="360" width="80" height="60" as="geometry" />
        </mxCell>
        <mxCell id="0DwwCOCY6F2ctR4Fyw3S-15" value="" style="edgeStyle=orthogonalEdgeStyle;rounded=0;orthogonalLoop=1;jettySize=auto;html=1;" edge="1" parent="1" source="0DwwCOCY6F2ctR4Fyw3S-10" target="0DwwCOCY6F2ctR4Fyw3S-11">
          <mxGeometry relative="1" as="geometry" />
        </mxCell>
        <mxCell id="0DwwCOCY6F2ctR4Fyw3S-39" style="edgeStyle=orthogonalEdgeStyle;rounded=0;orthogonalLoop=1;jettySize=auto;html=1;entryX=0.5;entryY=0;entryDx=0;entryDy=0;" edge="1" parent="1" source="0DwwCOCY6F2ctR4Fyw3S-10" target="0DwwCOCY6F2ctR4Fyw3S-38">
          <mxGeometry relative="1" as="geometry" />
        </mxCell>
        <mxCell id="0DwwCOCY6F2ctR4Fyw3S-10" value="Operate" style="rounded=1;whiteSpace=wrap;html=1;fillColor=#1ba1e2;fontColor=#ffffff;strokeColor=#006EAF;" vertex="1" parent="1">
          <mxGeometry x="200" y="360" width="80" height="60" as="geometry" />
        </mxCell>
        <mxCell id="0DwwCOCY6F2ctR4Fyw3S-16" style="edgeStyle=orthogonalEdgeStyle;rounded=0;orthogonalLoop=1;jettySize=auto;html=1;entryX=0.5;entryY=1;entryDx=0;entryDy=0;" edge="1" parent="1" source="0DwwCOCY6F2ctR4Fyw3S-11" target="0DwwCOCY6F2ctR4Fyw3S-1">
          <mxGeometry relative="1" as="geometry" />
        </mxCell>
        <mxCell id="0DwwCOCY6F2ctR4Fyw3S-41" style="edgeStyle=orthogonalEdgeStyle;rounded=0;orthogonalLoop=1;jettySize=auto;html=1;entryX=0.5;entryY=0;entryDx=0;entryDy=0;" edge="1" parent="1" source="0DwwCOCY6F2ctR4Fyw3S-11" target="0DwwCOCY6F2ctR4Fyw3S-40">
          <mxGeometry relative="1" as="geometry" />
        </mxCell>
        <mxCell id="0DwwCOCY6F2ctR4Fyw3S-11" value="Monitor" style="rounded=1;whiteSpace=wrap;html=1;fillColor=#e3c800;fontColor=#000000;strokeColor=#B09500;" vertex="1" parent="1">
          <mxGeometry x="80" y="360" width="80" height="60" as="geometry" />
        </mxCell>
        <mxCell id="0DwwCOCY6F2ctR4Fyw3S-17" value="Git/ IntelliJ" style="ellipse;whiteSpace=wrap;html=1;fillColor=#f5f5f5;fontColor=#333333;strokeColor=#666666;" vertex="1" parent="1">
          <mxGeometry x="200" y="50" width="80" height="50" as="geometry" />
        </mxCell>
        <mxCell id="0DwwCOCY6F2ctR4Fyw3S-25" style="edgeStyle=orthogonalEdgeStyle;rounded=0;orthogonalLoop=1;jettySize=auto;html=1;exitX=0.5;exitY=1;exitDx=0;exitDy=0;entryX=0.5;entryY=1;entryDx=0;entryDy=0;" edge="1" parent="1">
          <mxGeometry relative="1" as="geometry">
            <mxPoint x="520" y="100" as="sourcePoint" />
            <mxPoint x="520" y="100" as="targetPoint" />
          </mxGeometry>
        </mxCell>
        <mxCell id="0DwwCOCY6F2ctR4Fyw3S-23" value="JUnit/ Selenium" style="ellipse;whiteSpace=wrap;html=1;fillColor=#f5f5f5;fontColor=#333333;strokeColor=#666666;" vertex="1" parent="1">
          <mxGeometry x="440" y="50" width="80" height="50" as="geometry" />
        </mxCell>
        <mxCell id="0DwwCOCY6F2ctR4Fyw3S-29" value="Jenkins" style="ellipse;whiteSpace=wrap;html=1;fillColor=#f5f5f5;fontColor=#333333;strokeColor=#666666;" vertex="1" parent="1">
          <mxGeometry x="440" y="500" width="80" height="50" as="geometry" />
        </mxCell>
        <mxCell id="0DwwCOCY6F2ctR4Fyw3S-31" value="Maven" style="ellipse;whiteSpace=wrap;html=1;fillColor=#f5f5f5;fontColor=#333333;strokeColor=#666666;" vertex="1" parent="1">
          <mxGeometry x="320" y="50" width="80" height="50" as="geometry" />
        </mxCell>
        <mxCell id="0DwwCOCY6F2ctR4Fyw3S-36" value="Docker/AWS" style="ellipse;whiteSpace=wrap;html=1;fillColor=#f5f5f5;fontColor=#333333;strokeColor=#666666;" vertex="1" parent="1">
          <mxGeometry x="320" y="500" width="80" height="50" as="geometry" />
        </mxCell>
        <mxCell id="0DwwCOCY6F2ctR4Fyw3S-38" value="Ansible/Chef" style="ellipse;whiteSpace=wrap;html=1;fillColor=#f5f5f5;fontColor=#333333;strokeColor=#666666;" vertex="1" parent="1">
          <mxGeometry x="200" y="500" width="80" height="50" as="geometry" />
        </mxCell>
        <mxCell id="0DwwCOCY6F2ctR4Fyw3S-40" value="Splunk" style="ellipse;whiteSpace=wrap;html=1;fillColor=#f5f5f5;fontColor=#333333;strokeColor=#666666;" vertex="1" parent="1">
          <mxGeometry x="80" y="500" width="80" height="50" as="geometry" />
        </mxCell>
        <mxCell id="0DwwCOCY6F2ctR4Fyw3S-45" value="" style="shape=flexArrow;endArrow=classic;html=1;rounded=0;" edge="1" parent="1">
          <mxGeometry width="50" height="50" relative="1" as="geometry">
            <mxPoint x="680" y="144.5" as="sourcePoint" />
            <mxPoint x="760" y="144.5" as="targetPoint" />
          </mxGeometry>
        </mxCell>
        <mxCell id="0DwwCOCY6F2ctR4Fyw3S-46" value="" style="shape=flexArrow;endArrow=classic;html=1;rounded=0;" edge="1" parent="1">
          <mxGeometry width="50" height="50" relative="1" as="geometry">
            <mxPoint x="680" y="440" as="sourcePoint" />
            <mxPoint x="760" y="440" as="targetPoint" />
          </mxGeometry>
        </mxCell>
        <mxCell id="0DwwCOCY6F2ctR4Fyw3S-47" value="&lt;font style=&quot;font-size: 15px&quot;&gt;Continuous Integration&lt;/font&gt;" style="text;html=1;strokeColor=none;fillColor=none;align=center;verticalAlign=middle;whiteSpace=wrap;rounded=0;" vertex="1" parent="1">
          <mxGeometry x="780" y="130" width="160" height="30" as="geometry" />
        </mxCell>
        <mxCell id="0DwwCOCY6F2ctR4Fyw3S-48" value="&lt;font style=&quot;font-size: 15px&quot;&gt;Continuous Development&lt;/font&gt;" style="text;html=1;strokeColor=none;fillColor=none;align=center;verticalAlign=middle;whiteSpace=wrap;rounded=0;" vertex="1" parent="1">
          <mxGeometry x="780" y="430" width="180" height="30" as="geometry" />
        </mxCell>
        <mxCell id="0DwwCOCY6F2ctR4Fyw3S-50" value="" style="sketch=0;outlineConnect=0;fontColor=#232F3E;gradientColor=none;fillColor=#232F3E;strokeColor=none;dashed=0;verticalLabelPosition=bottom;verticalAlign=top;align=center;html=1;fontSize=12;fontStyle=0;aspect=fixed;pointerEvents=1;shape=mxgraph.aws4.client;" vertex="1" parent="1">
          <mxGeometry x="510" y="1040" width="41.05" height="40" as="geometry" />
        </mxCell>
        <mxCell id="0DwwCOCY6F2ctR4Fyw3S-51" value="" style="edgeStyle=orthogonalEdgeStyle;html=1;endArrow=none;elbow=vertical;startArrow=block;startFill=1;strokeColor=#545B64;rounded=0;fontSize=15;fontColor=#000000;" edge="1" parent="1">
          <mxGeometry width="100" relative="1" as="geometry">
            <mxPoint x="551.05" y="1059.5" as="sourcePoint" />
            <mxPoint x="651" y="1060" as="targetPoint" />
            <Array as="points">
              <mxPoint x="651.05" y="1059.5" />
              <mxPoint x="651.05" y="1059.5" />
            </Array>
          </mxGeometry>
        </mxCell>
        <mxCell id="0DwwCOCY6F2ctR4Fyw3S-52" value="Code Fetch" style="edgeLabel;html=1;align=center;verticalAlign=middle;resizable=0;points=[];fontSize=15;fontColor=#000000;" vertex="1" connectable="0" parent="0DwwCOCY6F2ctR4Fyw3S-51">
          <mxGeometry x="0.2396" relative="1" as="geometry">
            <mxPoint as="offset" />
          </mxGeometry>
        </mxCell>
        <mxCell id="0DwwCOCY6F2ctR4Fyw3S-53" value="" style="sketch=0;outlineConnect=0;fontColor=#232F3E;gradientColor=none;fillColor=#232F3E;strokeColor=none;dashed=0;verticalLabelPosition=bottom;verticalAlign=top;align=center;html=1;fontSize=12;fontStyle=0;aspect=fixed;pointerEvents=1;shape=mxgraph.aws4.forums;" vertex="1" parent="1">
          <mxGeometry x="510" y="940" width="41.05" height="40" as="geometry" />
        </mxCell>
        <mxCell id="0DwwCOCY6F2ctR4Fyw3S-55" value="Commit&lt;br&gt;" style="edgeStyle=orthogonalEdgeStyle;html=1;endArrow=none;elbow=vertical;startArrow=open;startFill=0;strokeColor=#545B64;rounded=0;fontSize=15;fontColor=#000000;" edge="1" parent="1" source="0DwwCOCY6F2ctR4Fyw3S-53" target="0DwwCOCY6F2ctR4Fyw3S-50">
          <mxGeometry width="100" relative="1" as="geometry">
            <mxPoint x="350" y="1090" as="sourcePoint" />
            <mxPoint x="450" y="1090" as="targetPoint" />
            <Array as="points">
              <mxPoint x="531" y="1020" />
              <mxPoint x="531" y="1020" />
            </Array>
          </mxGeometry>
        </mxCell>
        <mxCell id="0DwwCOCY6F2ctR4Fyw3S-56" value="VCS" style="text;html=1;strokeColor=none;fillColor=none;align=center;verticalAlign=middle;whiteSpace=wrap;rounded=0;fontSize=15;fontColor=#000000;" vertex="1" parent="1">
          <mxGeometry x="500.53" y="910" width="60" height="30" as="geometry" />
        </mxCell>
        <mxCell id="0DwwCOCY6F2ctR4Fyw3S-57" value="" style="sketch=0;outlineConnect=0;fontColor=#232F3E;gradientColor=none;fillColor=#232F3E;strokeColor=none;dashed=0;verticalLabelPosition=bottom;verticalAlign=top;align=center;html=1;fontSize=12;fontStyle=0;aspect=fixed;pointerEvents=1;shape=mxgraph.aws4.corporate_data_center;" vertex="1" parent="1">
          <mxGeometry x="610" y="862" width="53" height="78" as="geometry" />
        </mxCell>
        <mxCell id="0DwwCOCY6F2ctR4Fyw3S-58" value="CI Server" style="text;html=1;strokeColor=none;fillColor=none;align=center;verticalAlign=middle;whiteSpace=wrap;rounded=0;fontSize=15;fontColor=#000000;" vertex="1" parent="1">
          <mxGeometry x="631.5" y="820" width="70" height="30" as="geometry" />
        </mxCell>
        <mxCell id="0DwwCOCY6F2ctR4Fyw3S-59" value="" style="edgeStyle=orthogonalEdgeStyle;html=1;endArrow=openThin;elbow=vertical;startArrow=none;endFill=0;strokeColor=#545B64;rounded=0;fontSize=15;fontColor=#000000;" edge="1" parent="1" source="0DwwCOCY6F2ctR4Fyw3S-53" target="0DwwCOCY6F2ctR4Fyw3S-57">
          <mxGeometry width="100" relative="1" as="geometry">
            <mxPoint x="350" y="1070" as="sourcePoint" />
            <mxPoint x="630" y="900" as="targetPoint" />
            <Array as="points">
              <mxPoint x="531" y="889" />
            </Array>
          </mxGeometry>
        </mxCell>
        <mxCell id="0DwwCOCY6F2ctR4Fyw3S-74" style="edgeStyle=orthogonalEdgeStyle;rounded=0;orthogonalLoop=1;jettySize=auto;html=1;fontSize=15;fontColor=#000000;" edge="1" parent="1" source="0DwwCOCY6F2ctR4Fyw3S-61" target="0DwwCOCY6F2ctR4Fyw3S-65">
          <mxGeometry relative="1" as="geometry" />
        </mxCell>
        <mxCell id="0DwwCOCY6F2ctR4Fyw3S-61" value="" style="sketch=0;outlineConnect=0;fontColor=#232F3E;gradientColor=none;fillColor=#232F3E;strokeColor=none;dashed=0;verticalLabelPosition=bottom;verticalAlign=top;align=center;html=1;fontSize=12;fontStyle=0;aspect=fixed;pointerEvents=1;shape=mxgraph.aws4.gear;" vertex="1" parent="1">
          <mxGeometry x="710" y="919.5" width="49" height="49" as="geometry" />
        </mxCell>
        <mxCell id="0DwwCOCY6F2ctR4Fyw3S-62" value="" style="edgeStyle=orthogonalEdgeStyle;html=1;endArrow=openThin;elbow=vertical;startArrow=none;endFill=0;strokeColor=#545B64;rounded=0;fontSize=15;fontColor=#000000;entryX=0.408;entryY=-0.02;entryDx=0;entryDy=0;entryPerimeter=0;" edge="1" parent="1" source="0DwwCOCY6F2ctR4Fyw3S-57" target="0DwwCOCY6F2ctR4Fyw3S-61">
          <mxGeometry width="100" relative="1" as="geometry">
            <mxPoint x="693" y="880" as="sourcePoint" />
            <mxPoint x="793" y="880" as="targetPoint" />
          </mxGeometry>
        </mxCell>
        <mxCell id="0DwwCOCY6F2ctR4Fyw3S-63" value="Build" style="text;html=1;strokeColor=none;fillColor=none;align=center;verticalAlign=middle;whiteSpace=wrap;rounded=0;fontSize=15;fontColor=#000000;" vertex="1" parent="1">
          <mxGeometry x="740" y="910" width="60" height="30" as="geometry" />
        </mxCell>
        <mxCell id="0DwwCOCY6F2ctR4Fyw3S-68" style="edgeStyle=orthogonalEdgeStyle;rounded=0;orthogonalLoop=1;jettySize=auto;html=1;fontSize=15;fontColor=#000000;" edge="1" parent="1" source="0DwwCOCY6F2ctR4Fyw3S-65">
          <mxGeometry relative="1" as="geometry">
            <mxPoint x="660" y="1060" as="targetPoint" />
          </mxGeometry>
        </mxCell>
        <mxCell id="0DwwCOCY6F2ctR4Fyw3S-65" value="" style="sketch=0;outlineConnect=0;fontColor=#232F3E;gradientColor=none;fillColor=#232F3E;strokeColor=none;dashed=0;verticalLabelPosition=bottom;verticalAlign=top;align=center;html=1;fontSize=12;fontStyle=0;aspect=fixed;pointerEvents=1;shape=mxgraph.aws4.client;" vertex="1" parent="1">
          <mxGeometry x="759" y="1035.64" width="50" height="48.72" as="geometry" />
        </mxCell>
        <mxCell id="0DwwCOCY6F2ctR4Fyw3S-69" value="Build&lt;br&gt;fail" style="text;html=1;strokeColor=none;fillColor=none;align=center;verticalAlign=middle;whiteSpace=wrap;rounded=0;fontSize=15;fontColor=#000000;" vertex="1" parent="1">
          <mxGeometry x="693" y="1030" width="60" height="30" as="geometry" />
        </mxCell>
        <mxCell id="0DwwCOCY6F2ctR4Fyw3S-70" value="" style="edgeStyle=orthogonalEdgeStyle;html=1;endArrow=open;elbow=vertical;startArrow=none;endFill=0;strokeColor=#545B64;rounded=0;fontSize=15;fontColor=#000000;entryX=1;entryY=0.5;entryDx=0;entryDy=0;entryPerimeter=0;" edge="1" parent="1" target="0DwwCOCY6F2ctR4Fyw3S-75">
          <mxGeometry width="100" relative="1" as="geometry">
            <mxPoint x="780.75" y="1070.0000000000002" as="sourcePoint" />
            <mxPoint x="730" y="1211" as="targetPoint" />
            <Array as="points">
              <mxPoint x="781" y="1180" />
              <mxPoint x="712" y="1180" />
            </Array>
          </mxGeometry>
        </mxCell>
        <mxCell id="0DwwCOCY6F2ctR4Fyw3S-72" value="Build Pass" style="edgeLabel;html=1;align=center;verticalAlign=middle;resizable=0;points=[];fontSize=15;fontColor=#000000;" vertex="1" connectable="0" parent="0DwwCOCY6F2ctR4Fyw3S-70">
          <mxGeometry x="-0.2798" relative="1" as="geometry">
            <mxPoint x="3" y="-43" as="offset" />
          </mxGeometry>
        </mxCell>
        <mxCell id="0DwwCOCY6F2ctR4Fyw3S-67" value="Test" style="text;html=1;strokeColor=none;fillColor=none;align=center;verticalAlign=middle;whiteSpace=wrap;rounded=0;fontSize=15;fontColor=#000000;" vertex="1" parent="1">
          <mxGeometry x="753" y="968.5" width="60" height="30" as="geometry" />
        </mxCell>
        <mxCell id="0DwwCOCY6F2ctR4Fyw3S-75" value="" style="sketch=0;points=[[0,0,0],[0.25,0,0],[0.5,0,0],[0.75,0,0],[1,0,0],[0,1,0],[0.25,1,0],[0.5,1,0],[0.75,1,0],[1,1,0],[0,0.25,0],[0,0.5,0],[0,0.75,0],[1,0.25,0],[1,0.5,0],[1,0.75,0]];outlineConnect=0;fontColor=#232F3E;gradientColor=#F78E04;gradientDirection=north;fillColor=#D05C17;strokeColor=#ffffff;dashed=0;verticalLabelPosition=bottom;verticalAlign=top;align=center;html=1;fontSize=12;fontStyle=0;aspect=fixed;shape=mxgraph.aws4.resourceIcon;resIcon=mxgraph.aws4.ec2_image_builder;" vertex="1" parent="1">
          <mxGeometry x="663" y="1150" width="49" height="49" as="geometry" />
        </mxCell>
        <mxCell id="0DwwCOCY6F2ctR4Fyw3S-77" value="Trigger&lt;br&gt;Deployment" style="text;html=1;strokeColor=none;fillColor=none;align=center;verticalAlign=middle;whiteSpace=wrap;rounded=0;fontSize=15;fontColor=#000000;" vertex="1" parent="1">
          <mxGeometry x="749" y="1180" width="60" height="30" as="geometry" />
        </mxCell>
        <mxCell id="0DwwCOCY6F2ctR4Fyw3S-78" value="Continuous Deployment" style="text;html=1;strokeColor=none;fillColor=none;align=center;verticalAlign=middle;whiteSpace=wrap;rounded=0;fontSize=15;fontColor=#000000;" vertex="1" parent="1">
          <mxGeometry x="650" y="1199" width="60" height="30" as="geometry" />
        </mxCell>
        <mxCell id="0DwwCOCY6F2ctR4Fyw3S-79" value="" style="sketch=0;outlineConnect=0;fontColor=#232F3E;gradientColor=none;fillColor=#232F3E;strokeColor=none;dashed=0;verticalLabelPosition=bottom;verticalAlign=top;align=center;html=1;fontSize=12;fontStyle=0;aspect=fixed;pointerEvents=1;shape=mxgraph.aws4.gear;" vertex="1" parent="1">
          <mxGeometry x="451.53" y="1161" width="49" height="49" as="geometry" />
        </mxCell>
        <mxCell id="0DwwCOCY6F2ctR4Fyw3S-80" value="" style="edgeStyle=orthogonalEdgeStyle;html=1;endArrow=none;elbow=vertical;startArrow=block;startFill=1;strokeColor=#545B64;rounded=0;fontSize=15;fontColor=#000000;" edge="1" parent="1" source="0DwwCOCY6F2ctR4Fyw3S-79">
          <mxGeometry width="100" relative="1" as="geometry">
            <mxPoint x="569" y="1185" as="sourcePoint" />
            <mxPoint x="669" y="1185" as="targetPoint" />
          </mxGeometry>
        </mxCell>
        <mxCell id="0DwwCOCY6F2ctR4Fyw3S-81" value="Execute&lt;br&gt;Deployment" style="text;html=1;strokeColor=none;fillColor=none;align=center;verticalAlign=middle;whiteSpace=wrap;rounded=0;fontSize=15;fontColor=#000000;" vertex="1" parent="1">
          <mxGeometry x="451.53" y="1220" width="60" height="30" as="geometry" />
        </mxCell>
        <mxCell id="0DwwCOCY6F2ctR4Fyw3S-82" value="" style="sketch=0;outlineConnect=0;fontColor=#232F3E;gradientColor=none;fillColor=#FF9900;strokeColor=none;dashed=0;verticalLabelPosition=bottom;verticalAlign=top;align=center;html=1;fontSize=12;fontStyle=0;aspect=fixed;pointerEvents=1;shape=mxgraph.aws4.instances;" vertex="1" parent="1">
          <mxGeometry x="96" y="1084.36" width="48" height="48" as="geometry" />
        </mxCell>
        <mxCell id="0DwwCOCY6F2ctR4Fyw3S-83" value="" style="edgeStyle=orthogonalEdgeStyle;html=1;endArrow=none;elbow=vertical;startArrow=block;startFill=1;strokeColor=#545B64;rounded=0;fontSize=15;fontColor=#000000;exitX=0.625;exitY=1.159;exitDx=0;exitDy=0;exitPerimeter=0;" edge="1" parent="1" source="0DwwCOCY6F2ctR4Fyw3S-82">
          <mxGeometry width="100" relative="1" as="geometry">
            <mxPoint x="320" y="1185" as="sourcePoint" />
            <mxPoint x="451.53" y="1185" as="targetPoint" />
            <Array as="points">
              <mxPoint x="126" y="1185" />
            </Array>
          </mxGeometry>
        </mxCell>
        <mxCell id="0DwwCOCY6F2ctR4Fyw3S-84" value="Continuous&lt;br&gt;Testing" style="text;html=1;strokeColor=none;fillColor=none;align=center;verticalAlign=middle;whiteSpace=wrap;rounded=0;fontSize=15;fontColor=#000000;" vertex="1" parent="1">
          <mxGeometry x="10" y="1102.36" width="60" height="30" as="geometry" />
        </mxCell>
        <mxCell id="0DwwCOCY6F2ctR4Fyw3S-85" value="" style="sketch=0;outlineConnect=0;fontColor=#232F3E;gradientColor=none;fillColor=#56C0A7;strokeColor=none;dashed=0;verticalLabelPosition=bottom;verticalAlign=top;align=center;html=1;fontSize=12;fontStyle=0;aspect=fixed;pointerEvents=1;shape=mxgraph.aws4.rekognition_image;" vertex="1" parent="1">
          <mxGeometry x="70" y="886" width="77" height="78" as="geometry" />
        </mxCell>
        <mxCell id="0DwwCOCY6F2ctR4Fyw3S-86" value="" style="edgeStyle=orthogonalEdgeStyle;html=1;endArrow=block;elbow=vertical;startArrow=none;endFill=1;strokeColor=#545B64;rounded=0;fontSize=15;fontColor=#000000;" edge="1" parent="1">
          <mxGeometry width="100" relative="1" as="geometry">
            <mxPoint x="115" y="1080" as="sourcePoint" />
            <mxPoint x="115" y="955.68" as="targetPoint" />
            <Array as="points">
              <mxPoint x="115" y="1076" />
            </Array>
          </mxGeometry>
        </mxCell>
        <mxCell id="0DwwCOCY6F2ctR4Fyw3S-87" value="Continuous&lt;br&gt;Delivery &amp;amp; Monitoring" style="text;html=1;strokeColor=none;fillColor=none;align=center;verticalAlign=middle;whiteSpace=wrap;rounded=0;fontSize=15;fontColor=#000000;" vertex="1" parent="1">
          <mxGeometry y="910" width="60" height="30" as="geometry" />
        </mxCell>
        <mxCell id="0DwwCOCY6F2ctR4Fyw3S-89" value="" style="sketch=0;outlineConnect=0;fontColor=#232F3E;gradientColor=none;fillColor=#232F3E;strokeColor=none;dashed=0;verticalLabelPosition=bottom;verticalAlign=top;align=center;html=1;fontSize=12;fontStyle=0;aspect=fixed;pointerEvents=1;shape=mxgraph.aws4.documents;" vertex="1" parent="1">
          <mxGeometry x="88" y="720" width="64" height="78" as="geometry" />
        </mxCell>
        <mxCell id="0DwwCOCY6F2ctR4Fyw3S-91" value="Continuous&amp;nbsp;&lt;br&gt;Feedback" style="text;html=1;strokeColor=none;fillColor=none;align=center;verticalAlign=middle;whiteSpace=wrap;rounded=0;fontSize=15;fontColor=#000000;" vertex="1" parent="1">
          <mxGeometry x="10" y="730" width="60" height="30" as="geometry" />
        </mxCell>
        <mxCell id="0DwwCOCY6F2ctR4Fyw3S-92" value="" style="sketch=0;outlineConnect=0;fontColor=#232F3E;gradientColor=none;fillColor=#232F3E;strokeColor=none;dashed=0;verticalLabelPosition=bottom;verticalAlign=top;align=center;html=1;fontSize=12;fontStyle=0;aspect=fixed;pointerEvents=1;shape=mxgraph.aws4.users;" vertex="1" parent="1">
          <mxGeometry x="210" y="620" width="60" height="60" as="geometry" />
        </mxCell>
        <mxCell id="0DwwCOCY6F2ctR4Fyw3S-94" value="Continuous&lt;br&gt;Planning" style="text;html=1;strokeColor=none;fillColor=none;align=center;verticalAlign=middle;whiteSpace=wrap;rounded=0;fontSize=15;fontColor=#000000;" vertex="1" parent="1">
          <mxGeometry x="210" y="690" width="60" height="30" as="geometry" />
        </mxCell>
        <mxCell id="0DwwCOCY6F2ctR4Fyw3S-97" value="" style="edgeStyle=orthogonalEdgeStyle;html=1;endArrow=block;elbow=vertical;startArrow=none;endFill=1;strokeColor=#545B64;rounded=0;fontSize=15;fontColor=#000000;" edge="1" parent="1">
          <mxGeometry width="100" relative="1" as="geometry">
            <mxPoint x="113.5" y="886" as="sourcePoint" />
            <mxPoint x="114" y="800" as="targetPoint" />
            <Array as="points">
              <mxPoint x="113.5" y="882" />
            </Array>
          </mxGeometry>
        </mxCell>
        <mxCell id="0DwwCOCY6F2ctR4Fyw3S-99" value="" style="edgeStyle=orthogonalEdgeStyle;html=1;endArrow=block;elbow=vertical;startArrow=none;endFill=1;strokeColor=#545B64;rounded=0;fontSize=15;fontColor=#000000;" edge="1" parent="1">
          <mxGeometry width="100" relative="1" as="geometry">
            <mxPoint x="108" y="720" as="sourcePoint" />
            <mxPoint x="220" y="670" as="targetPoint" />
            <Array as="points">
              <mxPoint x="108" y="670" />
              <mxPoint x="210" y="670" />
            </Array>
          </mxGeometry>
        </mxCell>
        <mxCell id="0DwwCOCY6F2ctR4Fyw3S-100" value="" style="sketch=0;outlineConnect=0;fontColor=#232F3E;gradientColor=none;fillColor=#A166FF;strokeColor=none;dashed=0;verticalLabelPosition=bottom;verticalAlign=top;align=center;html=1;fontSize=12;fontStyle=0;aspect=fixed;pointerEvents=1;shape=mxgraph.aws4.cluster;" vertex="1" parent="1">
          <mxGeometry x="362" y="630" width="78" height="78" as="geometry" />
        </mxCell>
        <mxCell id="0DwwCOCY6F2ctR4Fyw3S-101" value="" style="edgeStyle=orthogonalEdgeStyle;html=1;endArrow=block;elbow=vertical;startArrow=none;endFill=1;strokeColor=#545B64;rounded=0;fontSize=15;fontColor=#000000;" edge="1" parent="1">
          <mxGeometry width="100" relative="1" as="geometry">
            <mxPoint x="320" y="670" as="sourcePoint" />
            <mxPoint x="360" y="670" as="targetPoint" />
            <Array as="points">
              <mxPoint x="230" y="670" />
              <mxPoint x="230" y="670" />
            </Array>
          </mxGeometry>
        </mxCell>
        <mxCell id="0DwwCOCY6F2ctR4Fyw3S-102" value="Continuous&lt;br&gt;Development" style="text;html=1;strokeColor=none;fillColor=none;align=center;verticalAlign=middle;whiteSpace=wrap;rounded=0;fontSize=15;fontColor=#000000;" vertex="1" parent="1">
          <mxGeometry x="380" y="708" width="60" height="30" as="geometry" />
        </mxCell>
        <mxCell id="0DwwCOCY6F2ctR4Fyw3S-103" value="" style="sketch=0;outlineConnect=0;fontColor=#232F3E;gradientColor=none;fillColor=#232F3E;strokeColor=none;dashed=0;verticalLabelPosition=bottom;verticalAlign=top;align=center;html=1;fontSize=12;fontStyle=0;aspect=fixed;pointerEvents=1;shape=mxgraph.aws4.corporate_data_center;" vertex="1" parent="1">
          <mxGeometry x="530" y="630" width="53" height="78" as="geometry" />
        </mxCell>
        <mxCell id="0DwwCOCY6F2ctR4Fyw3S-105" value="" style="edgeStyle=orthogonalEdgeStyle;html=1;endArrow=block;elbow=vertical;startArrow=none;endFill=1;strokeColor=#545B64;rounded=0;fontSize=15;fontColor=#000000;" edge="1" parent="1">
          <mxGeometry width="100" relative="1" as="geometry">
            <mxPoint x="431.53" y="668.5" as="sourcePoint" />
            <mxPoint x="531.53" y="668.5" as="targetPoint" />
          </mxGeometry>
        </mxCell>
        <mxCell id="0DwwCOCY6F2ctR4Fyw3S-106" value="Continuous&lt;br&gt;Integration" style="text;html=1;strokeColor=none;fillColor=none;align=center;verticalAlign=middle;whiteSpace=wrap;rounded=0;fontSize=15;fontColor=#000000;" vertex="1" parent="1">
          <mxGeometry x="603" y="650" width="60" height="30" as="geometry" />
        </mxCell>
        <mxCell id="0DwwCOCY6F2ctR4Fyw3S-107" value="" style="edgeStyle=orthogonalEdgeStyle;html=1;endArrow=block;elbow=vertical;startArrow=none;endFill=1;strokeColor=#545B64;rounded=0;fontSize=15;fontColor=#000000;" edge="1" parent="1">
          <mxGeometry width="100" relative="1" as="geometry">
            <mxPoint x="540" y="710" as="sourcePoint" />
            <mxPoint x="540" y="880" as="targetPoint" />
          </mxGeometry>
        </mxCell>
      </root>
    </mxGraphModel>
  </diagram>
</mxfile>
